<svg xmlns="http://www.w3.org/2000/svg" viewBox="0 0 220 200" width="220" height="200" shape-rendering="crispEdges" font-family="monospace">
  <defs>
    <filter id="glow" x="-50%" y="-50%" width="200%" height="200%">
      <feGaussianBlur stdDeviation="2.5" result="b"></feGaussianBlur>
      <feMerge><feMergeNode in="b"></feMergeNode><feMergeNode in="SourceGraphic"></feMergeNode></feMerge>
    </filter>
    <pattern id="brick" width="8" height="4" patternUnits="userSpaceOnUse">
      <rect width="8" height="4" fill="#241814"></rect>
      <rect x="0" y="3" width="8" height="1" fill="#0a0604"></rect>
      <rect x="3" y="0" width="1" height="3" fill="#0a0604"></rect>
    </pattern>
  </defs>

  <rect width="220" height="200" fill="#1a1a14"></rect>
  <rect width="220" height="200" fill="url(#brick)" opacity="0.6"></rect>
  <ellipse cx="40" cy="40" rx="30" ry="18" fill="#0a0604" opacity="0.4"></ellipse>
  <ellipse cx="180" cy="160" rx="36" ry="22" fill="#0a0604" opacity="0.35"></ellipse>
  <rect x="14" y="20" width="3" height="3" fill="#1a0f08"></rect>
  <rect x="203" y="20" width="3" height="3" fill="#1a0f08"></rect>
  <rect x="14" y="177" width="3" height="3" fill="#1a0f08"></rect>
  <rect x="203" y="177" width="3" height="3" fill="#1a0f08"></rect>
  <ellipse cx="110" cy="100" rx="92.39999999999999" ry="64" fill="#c89a3a" opacity="0.10"></ellipse>

  <g filter="url(#glow)">
    <text x="110" y="84" text-anchor="middle" font-size="50" font-weight="900" fill="#f8d8a0" letter-spacing="4">LAST</text>
  </g>
  <text x="110" y="84" text-anchor="middle" font-size="50" font-weight="900" fill="#fff" letter-spacing="4" opacity="0.85">LAST</text>

  <g filter="url(#glow)">
    <text x="110" y="148" text-anchor="middle" font-size="50" font-weight="900" fill="#f8d8a0" letter-spacing="4">CALL</text>
  </g>
  <text x="110" y="148" text-anchor="middle" font-size="50" font-weight="900" fill="#fff" letter-spacing="4" opacity="0.85">CALL</text>

  <g opacity="0.25">
    <rect y="0" width="220" height="1" fill="#000"></rect><rect y="2" width="220" height="1" fill="#000"></rect><rect y="4" width="220" height="1" fill="#000"></rect><rect y="6" width="220" height="1" fill="#000"></rect><rect y="8" width="220" height="1" fill="#000"></rect><rect y="10" width="220" height="1" fill="#000"></rect><rect y="12" width="220" height="1" fill="#000"></rect><rect y="14" width="220" height="1" fill="#000"></rect><rect y="16" width="220" height="1" fill="#000"></rect><rect y="18" width="220" height="1" fill="#000"></rect><rect y="20" width="220" height="1" fill="#000"></rect><rect y="22" width="220" height="1" fill="#000"></rect><rect y="24" width="220" height="1" fill="#000"></rect><rect y="26" width="220" height="1" fill="#000"></rect><rect y="28" width="220" height="1" fill="#000"></rect><rect y="30" width="220" height="1" fill="#000"></rect><rect y="32" width="220" height="1" fill="#000"></rect><rect y="34" width="220" height="1" fill="#000"></rect><rect y="36" width="220" height="1" fill="#000"></rect><rect y="38" width="220" height="1" fill="#000"></rect><rect y="40" width="220" height="1" fill="#000"></rect><rect y="42" width="220" height="1" fill="#000"></rect><rect y="44" width="220" height="1" fill="#000"></rect><rect y="46" width="220" height="1" fill="#000"></rect><rect y="48" width="220" height="1" fill="#000"></rect><rect y="50" width="220" height="1" fill="#000"></rect><rect y="52" width="220" height="1" fill="#000"></rect><rect y="54" width="220" height="1" fill="#000"></rect><rect y="56" width="220" height="1" fill="#000"></rect><rect y="58" width="220" height="1" fill="#000"></rect><rect y="60" width="220" height="1" fill="#000"></rect><rect y="62" width="220" height="1" fill="#000"></rect><rect y="64" width="220" height="1" fill="#000"></rect><rect y="66" width="220" height="1" fill="#000"></rect><rect y="68" width="220" height="1" fill="#000"></rect><rect y="70" width="220" height="1" fill="#000"></rect><rect y="72" width="220" height="1" fill="#000"></rect><rect y="74" width="220" height="1" fill="#000"></rect><rect y="76" width="220" height="1" fill="#000"></rect><rect y="78" width="220" height="1" fill="#000"></rect><rect y="80" width="220" height="1" fill="#000"></rect><rect y="82" width="220" height="1" fill="#000"></rect><rect y="84" width="220" height="1" fill="#000"></rect><rect y="86" width="220" height="1" fill="#000"></rect><rect y="88" width="220" height="1" fill="#000"></rect><rect y="90" width="220" height="1" fill="#000"></rect><rect y="92" width="220" height="1" fill="#000"></rect><rect y="94" width="220" height="1" fill="#000"></rect><rect y="96" width="220" height="1" fill="#000"></rect><rect y="98" width="220" height="1" fill="#000"></rect><rect y="100" width="220" height="1" fill="#000"></rect><rect y="102" width="220" height="1" fill="#000"></rect><rect y="104" width="220" height="1" fill="#000"></rect><rect y="106" width="220" height="1" fill="#000"></rect><rect y="108" width="220" height="1" fill="#000"></rect><rect y="110" width="220" height="1" fill="#000"></rect><rect y="112" width="220" height="1" fill="#000"></rect><rect y="114" width="220" height="1" fill="#000"></rect><rect y="116" width="220" height="1" fill="#000"></rect><rect y="118" width="220" height="1" fill="#000"></rect><rect y="120" width="220" height="1" fill="#000"></rect><rect y="122" width="220" height="1" fill="#000"></rect><rect y="124" width="220" height="1" fill="#000"></rect><rect y="126" width="220" height="1" fill="#000"></rect><rect y="128" width="220" height="1" fill="#000"></rect><rect y="130" width="220" height="1" fill="#000"></rect><rect y="132" width="220" height="1" fill="#000"></rect><rect y="134" width="220" height="1" fill="#000"></rect><rect y="136" width="220" height="1" fill="#000"></rect><rect y="138" width="220" height="1" fill="#000"></rect><rect y="140" width="220" height="1" fill="#000"></rect><rect y="142" width="220" height="1" fill="#000"></rect><rect y="144" width="220" height="1" fill="#000"></rect><rect y="146" width="220" height="1" fill="#000"></rect><rect y="148" width="220" height="1" fill="#000"></rect><rect y="150" width="220" height="1" fill="#000"></rect><rect y="152" width="220" height="1" fill="#000"></rect><rect y="154" width="220" height="1" fill="#000"></rect><rect y="156" width="220" height="1" fill="#000"></rect><rect y="158" width="220" height="1" fill="#000"></rect><rect y="160" width="220" height="1" fill="#000"></rect><rect y="162" width="220" height="1" fill="#000"></rect><rect y="164" width="220" height="1" fill="#000"></rect><rect y="166" width="220" height="1" fill="#000"></rect><rect y="168" width="220" height="1" fill="#000"></rect><rect y="170" width="220" height="1" fill="#000"></rect><rect y="172" width="220" height="1" fill="#000"></rect><rect y="174" width="220" height="1" fill="#000"></rect><rect y="176" width="220" height="1" fill="#000"></rect><rect y="178" width="220" height="1" fill="#000"></rect><rect y="180" width="220" height="1" fill="#000"></rect><rect y="182" width="220" height="1" fill="#000"></rect><rect y="184" width="220" height="1" fill="#000"></rect><rect y="186" width="220" height="1" fill="#000"></rect><rect y="188" width="220" height="1" fill="#000"></rect><rect y="190" width="220" height="1" fill="#000"></rect><rect y="192" width="220" height="1" fill="#000"></rect><rect y="194" width="220" height="1" fill="#000"></rect><rect y="196" width="220" height="1" fill="#000"></rect><rect y="198" width="220" height="1" fill="#000"></rect>
  </g>
  <rect x="6" y="6" width="208" height="188" fill="none" stroke="#1a0f08" stroke-width="2"></rect>
</svg>